<svg id="e09f0235-39d7-4305-9eb5-e035a3de634d" data-name="Layer 1" xmlns="http://www.w3.org/2000/svg" viewBox="0 0 180.21 218.1"><path d="M133.58,81.41V193.06c0,3.31-.1,3.33-3.45,3.83a297.72,297.72,0,0,1-59.28,2.81c-10.37-.51-20.7-2-31-3-1.77-.17-2.38-1.07-2.36-2.81,0-4.75-.08-9.5-.09-14.24q0-42.87,0-85.73c0-4.16-.24-4.12,3.65-5.13,3.68-1,7.17-2.63,10.79-3.83a4.84,4.84,0,0,1,3,0c18.93,7.1,38.24,8.49,57.84,3.45,6.41-1.65,12.58-4.21,18.86-6.35ZM54.41,143.94V108.46a9.2,9.2,0,0,0-.09-2.23c-.51-2-1.67-3.44-4-3.39a3.87,3.87,0,0,0-3.72,3.64,19,19,0,0,0,0,2v65.7c0,2.33,0,4.67,0,7s1.51,3.47,3.59,3.8c1.85.29,3.85-1.51,4.12-3.57a19.35,19.35,0,0,0,.08-2.75Q54.43,161.31,54.41,143.94Z"/><path d="M151.32,82.46c0,1.74,0,3.23,0,4.72,0,5.28-.48,4.55,4.41,4.83a29.72,29.72,0,0,1,16.69,5.81c5,3.81,7.74,8.74,7.7,15.17-.05,9,.07,18,.09,27,0,10.34-5.1,17.61-15,20.68a54,54,0,0,1-11.46,2c-2.1.17-2.47.86-2.46,2.68,0,13.16,0,26.33,0,39.49,0,5.21-1.05,6.71-6.22,7.55-9.19,1.5-18.39,3-27.65,4a277.5,277.5,0,0,1-51.63.92c-13.42-1.07-26.76-3.13-40.1-5-5.06-.71-6.22-2.52-6.22-7.62q0-55.87,0-111.74c0-3.12,0-3.11,3-2.78,1.24.14,2.49.21,3.74.27,3.49.18,3.51.18,3.51,3.8,0,35.08.07,70.15,0,105.23,0,2.83.92,3.84,3.49,4.16,7.59.94,15.16,2.2,22.77,2.93a313.19,313.19,0,0,0,59.37,0c7.77-.74,15.49-2.09,23.24-3.12,2.21-.29,2.92-1.33,2.92-3.62q0-57,.09-114c0-3.3,0-3.29,3.2-3.28,1.09,0,2.17-.06,3.25-.07Zm0,44.47c0,7.75,0,15.49,0,23.23,0,1.87.46,2.75,2.54,2.59,4.47-.32,8.74-1.2,12.43-3.88a8.49,8.49,0,0,0,3.89-7.37q-.15-14.11,0-28.22a8.47,8.47,0,0,0-3.78-7.42,22.66,22.66,0,0,0-12.63-4c-1.84-.08-2.48.45-2.46,2.36C151.34,111.78,151.28,119.36,151.28,126.93Z"/><path d="M0,54.82C-.22,40.24,8.06,29.51,22.19,26.46a41.73,41.73,0,0,0,4.63-.95,4.61,4.61,0,0,0,2.4-1.78A46.85,46.85,0,0,1,59.28,1.44c15.26-3.78,29-.09,40.63,10.72,1.65,1.54,2.72,1.87,4.87.85,16.13-7.63,35.7-2.75,44.78,11.47a22.14,22.14,0,0,0,9.17,8.28c7.83,4,12.23,10.93,11.88,19.87-.38,9.56-5.79,16-14.38,19.92-7.15,3.22-14.47,2.24-21.81.69a5.18,5.18,0,0,0-3,.25,98.55,98.55,0,0,1-31.14,9.41,84.67,84.67,0,0,1-32.21-2,117.55,117.55,0,0,1-12.71-4.35,5.29,5.29,0,0,0-4.88.28,50,50,0,0,1-20.21,5.83C16.93,83.42,6.56,77,2.15,64.77,1,61.6.7,58.14,0,54.82Zm10.34-1.23c0,12.63,7.68,19.87,20.29,19,6.5-.47,12.46-2.89,18-6.16a7.45,7.45,0,0,1,7.93-.27,68.54,68.54,0,0,0,20.12,6.37c17.87,3,34.76-.35,50.78-8.45a11.76,11.76,0,0,1,9.07-.81c4.73,1.3,9.58,2.35,14.48.56s8.45-4.67,9.32-10-1.65-9.22-6-11.92a19.89,19.89,0,0,0-6-2.29c-2.63-.58-3.76-2.22-4.77-4.52a27.82,27.82,0,0,0-4.46-7.66c-8.54-9.37-23.68-10.45-34.39-2.71-3.49,2.51-6,2.27-8.29-1.08-5.33-7.65-12.76-11.63-21.83-13-15.27-2.26-31.84,6.9-37.82,21a5.65,5.65,0,0,1-5.17,3.66A57.51,57.51,0,0,0,24,36.37C15.29,38.35,10.32,44.7,10.34,53.59Z"/></svg>