<svg id="f8607f05-b326-4844-a577-f5d34c380337" data-name="Layer 1" xmlns="http://www.w3.org/2000/svg" viewBox="0 0 87.9 263.94"><path d="M44.06,0H61.55c8.39,0,9.07.55,10.88,8.64a277.77,277.77,0,0,1,6.73,72.42c-.54,12.84-2,25.57-6.57,37.72-2.76,7.33-6.35,14.19-12.82,18.94a29.23,29.23,0,0,1-8.16,4.1c-1.92.63-2.5,1.4-2.49,3.26,0,11.25,0,22.5,0,33.74q0,27-.1,54c0,3.94,0,3.88,3.73,5.14,10.38,3.54,20.72,7.16,31.11,10.68a5.32,5.32,0,0,1,4.06,5.07c.12,2.31-1.71,4.18-4.5,4.95a146.83,146.83,0,0,1-64.79,3c-4.82-.84-9.59-2-14.35-3.17-2.35-.57-4-1.94-4.23-4.6s.86-4.28,3.64-5.25c10.75-3.74,21.5-7.47,32.31-11,2.24-.74,2.9-1.83,2.88-4.08-.1-12,0-24-.05-36,0-17.17,0-34.33,0-51.49,0-2.5-.47-3.64-3.24-4.42-7.93-2.22-13-8.07-16.83-15.05-4.93-8.95-7.29-18.71-8.68-28.73A217.76,217.76,0,0,1,9.29,49c1.07-12.15,3.46-24.19,5.33-36.27.39-2.54,1-5.07,1.6-7.57,1-3.69,2.29-4.9,6.12-5C28-.06,33.66,0,39.32,0Zm25.2,66.68C69.34,50.12,67.08,31.4,63,12.86c-.46-2.1-1.2-2.93-3.42-2.91q-15.74.15-31.48,0c-2.1,0-3.09.78-3.38,2.74C23,24.37,20.71,36,19.6,47.74c-1.82,19.19-2,38.43,2.1,57.45a61.07,61.07,0,0,0,8,20c6.33,10,22.2,9.94,28.47-.07,4.48-7.13,7-14.87,8.59-23C68.92,91.27,69.3,80.21,69.26,66.68ZM24.91,252c5.46,2.4,34.25,2.49,37.62-.07-4.81-1.7-9.57-3.16-14.15-5.07a11.58,11.58,0,0,0-9.59.26c-.69.29-1.41.5-2.11.74Z"/><path d="M61.48,70.9c-.22,12.84-.55,25.69-4.58,38a51.32,51.32,0,0,1-6,12.49c-3.42,5.11-10.21,5-14.06.16s-5.77-10.83-7.22-16.83C25.41,87.36,26.41,69.67,26.79,52c.05-2,.87-2.75,2.93-2.73q14.12.14,28.23,0c2.19,0,3,.73,2.93,2.87-.08,6.25,0,12.49,0,18.74ZM43.9,108.61A4.57,4.57,0,0,0,48.39,104a4.51,4.51,0,0,0-4.54-4.58A4.69,4.69,0,0,0,39.29,104,4.79,4.79,0,0,0,43.9,108.61Zm9-23.65a4.91,4.91,0,0,0-4.63-4.63,4.72,4.72,0,0,0-4.64,4.57,4.52,4.52,0,0,0,4.58,4.55A4.65,4.65,0,0,0,52.91,85ZM39.45,71.73a4.56,4.56,0,0,0,4.7-4.43,4.69,4.69,0,0,0-4.5-4.66A4.55,4.55,0,0,0,35,67.11,4.45,4.45,0,0,0,39.45,71.73Z"/></svg>