<svg id="b50cee91-9704-40fa-b257-1802099f201a" data-name="Layer 1" xmlns="http://www.w3.org/2000/svg" viewBox="0 0 143.23 190.65"><path d="M56.78,45.37h50c5.19,0,7,2.2,6.49,7.3-1.49,15-2.86,30-4.3,45-1.47,15.41-3,30.83-4.47,46.24q-1.69,17.66-3.37,35.31c-.22,2.32-.43,4.65-.74,7a4.7,4.7,0,0,1-4.86,4.42c-1.57.08-3.16,0-4.74,0H20.81c-1.08,0-2.17,0-3.25-.07A4.56,4.56,0,0,1,13,186.17q-1.45-13.78-2.77-27.59Q7.4,129.75,4.63,100.9,3,83.86,1.41,66.83.74,59.62.07,52.4c-.47-5,1.35-7,6.51-7Zm-.25,10H13.31c-1.48,0-2.92-.14-2.7,2.12.94,9.7,1.8,19.41,2.73,29.11q2.29,23.88,4.62,47.75,2.09,21.89,4.12,43.78c.18,2,1,2.68,3,2.68q31.49-.09,63,0c2.3,0,3.06-.87,3.21-3,.39-5.49.88-11,1.41-16.43q2.76-28.6,5.57-57.19c1.49-15.34,2.87-30.69,4.44-46,.24-2.38-.49-2.87-2.65-2.86C85.51,55.4,71,55.37,56.53,55.37Z"/><path d="M75.33,35.38c2-4.2,3.72-7.78,5.44-11.34C84,17.46,87.25,10.92,90.35,4.3c1.4-3,3.3-4.35,6.77-4.3,12.91.18,25.81.07,38.72.07.91,0,1.83,0,2.74,0A4.86,4.86,0,0,1,143.23,5a5,5,0,0,1-4.65,5c-1.57.12-3.16,0-4.74,0-10.82,0-21.65.06-32.47,0a3.41,3.41,0,0,0-3.61,2.26c-3.35,7.06-6.89,14-10.27,21.07a3.06,3.06,0,0,1-3.25,2.07C81.52,35.31,78.79,35.38,75.33,35.38Z"/><path d="M56.53,69.6c11.41,0,22.82.06,34.23,0,2.25,0,2.86.63,2.64,2.86q-2.91,29.1-5.67,58.2c-1.24,12.93-2.49,25.86-3.58,38.81-.23,2.69-1.21,3.4-3.84,3.38q-24-.18-48,0c-2.29,0-3.06-.76-3.25-2.9-1-11.53-2.13-23-3.22-34.58Q23.55,111,21.21,86.59C20.77,82,20.35,77.47,20,72.9c-.26-3.34-.2-3.34,3.05-3.34H56.53Zm1.55,31.14a8.66,8.66,0,0,0-.31-1.19c-2.33-5-4.59-10-7.12-14.83a3.26,3.26,0,0,0-3-1c-5,2.13-9.81,4.5-14.67,6.87a2.14,2.14,0,0,0-1,3.16c2.24,4.73,4.43,9.49,6.71,14.2.62,1.26,1.57,2.19,3.21,1.42,4.81-2.27,9.64-4.47,14.42-6.81C57.08,102.15,57.6,101.24,58.08,100.74Zm-1.4,34.61a4.65,4.65,0,0,0-1.08.2c-5.05,2.49-10.14,4.92-15.1,7.58a3.11,3.11,0,0,0-.77,2.92q3.33,7.35,7.17,14.49a3,3,0,0,0,2.79,1.05c4.9-2.21,9.71-4.64,14.51-7.07,1.18-.6,2.07-1.53,1.33-3-2.41-4.91-4.82-9.82-7.31-14.69C57.89,136.15,57.1,135.74,56.68,135.35Zm15-2.58c.51-.5,1.42-1,1.78-1.8,2.15-4.68,4.16-9.41,6.24-14.12.75-1.68.33-3-1.32-3.7-4.69-2.1-9.41-4.13-14.11-6.2-1.86-.82-3-.1-3.73,1.65-2,4.56-4,9.1-6,13.64-.87,1.93-.21,3.14,1.65,4,4.55,2,9.09,4,13.64,6A18.09,18.09,0,0,0,71.64,132.77Z"/></svg>