<svg id="ad1152a8-4b91-4120-8b78-7538267a14eb" data-name="Layer 1" xmlns="http://www.w3.org/2000/svg" viewBox="0 0 192.93 223.36"><path d="M72.25,48.75h65.2c5.26,0,6.61,1.41,6.63,6.7,0,8.28-.52,16.49-3.22,24.39-3.73,10.91-11.34,18.2-22.08,21.78-6.66,2.22-13.68,3.41-20.6,4.74-2.05.4-2.59,1.09-2.54,3a77,77,0,0,1-.15,9.49,18.93,18.93,0,0,1-14.18,16.26c-4.14,1.09-4.13,1.09-4.13,5.32,0,17.42.11,34.83,0,52.24,0,2.41.87,3.34,3,4,10.62,3.59,21.21,7.29,31.8,11,2.64.91,4.21,2.78,4.11,5a4.86,4.86,0,0,1-4.09,5c-7.47,1.55-14.92,3.33-22.47,4.42a122.72,122.72,0,0,1-34.61,0c-7.4-1-14.73-2.61-22-4.22-3.45-.76-4.71-2.57-4.64-5.28s1.4-4,4.66-5.08c10.61-3.61,21.2-7.29,31.81-10.89a3.15,3.15,0,0,0,2.41-3.49q-.06-27.26.1-54.49c0-2-.72-2.74-2.57-3.14-7.33-1.59-13-5.56-15.12-12.93-1.1-3.82-.82-8.07-1-12.13s0-3.79-3.47-4.25c-8.17-1.09-16.22-2.7-23.75-6.32C10.57,94.75,4.43,86.13,1.88,74.6A83.71,83.71,0,0,1,0,53.79a4.91,4.91,0,0,1,4.76-5c1.33-.09,2.66,0,4,0H72.25ZM72,58.68H68.29c-18.48,0-37,0-55.44,0-2.45,0-3,.84-2.73,3.06s.4,4.48.68,6.71c1.39,11,6.39,19.31,17.06,23.52,8,3.16,16.38,4.31,24.85,5,4.06.33,5.87,2.13,5.9,6.18,0,4.49.1,9,0,13.49-.1,3.79,1.67,6.33,4.87,8,4.37,2.31,9.11,2,13.66,1.2,6.17-1.14,8.29-4.17,8.29-10.46,0-4,0-8,0-12s2-5.89,6-6.49a214.58,214.58,0,0,0,22-4c8.07-2.1,14.66-6.85,17.41-15,1.73-5.14,2.11-10.72,3.11-16.1.47-2.47-.57-3.09-3-3.08C111.33,58.73,91.68,58.69,72,58.68ZM53.43,211.11c4.18,2.75,34.22,2.6,37.09-.09-6-2.09-12-4.14-17.93-6.17a2,2,0,0,0-1.22.05C65.49,206.92,59.63,209,53.43,211.11Z"/><path d="M146.45,87.5c1-3,1.9-6,3.12-8.75.31-.68,1.78-1.08,2.77-1.2,13.74-1.66,23.09-9.1,28.33-21.74,7.19-17.4-3.59-39-21.62-44.26A34.13,34.13,0,0,0,117,32.48a35.57,35.57,0,0,0-1.5,6c-.27,1.67-.82,2.58-2.68,2.46s-4-.05-6,0c-1.44,0-1.85-.62-1.7-2C107,21.69,120.17,6.51,136.64,1.73a43.94,43.94,0,1,1,12.67,86.18,17,17,0,0,1-1.75,0A5.68,5.68,0,0,1,146.45,87.5Z"/><path d="M166.86,46.93c2.07,0,4.15,0,6.22,0,1.74,0,2.68.89,2.12,2.47a87.63,87.63,0,0,1-4,9.31,2.7,2.7,0,0,1-2.57.3c-3.23-3-6.32-6.1-9.37-9.26a2.21,2.21,0,0,1-.5-2,2.49,2.49,0,0,1,1.85-.83C162.71,46.86,164.78,46.92,166.86,46.93Z"/><path d="M145.8,26c0,2.16.06,4.32,0,6.47,0,.58-.38,1.52-.76,1.62a2.38,2.38,0,0,1-1.95-.51c-3.1-3-6.12-6-9.17-9.1-1.16-1.16-1.09-2.32.37-3,2.9-1.36,5.85-2.65,8.87-3.74,1.86-.68,2.77.3,2.7,2.29s0,4,0,6Z"/><path d="M152,25.93c0-2.07,0-4.14,0-6.22,0-1.74.9-2.61,2.51-2,3.09,1.13,6.11,2.43,9.11,3.79,1.35.62,1.47,1.79.45,2.84-3.08,3.14-6.18,6.23-9.34,9.28-.4.4-1.36.78-1.69.57a2.49,2.49,0,0,1-1-1.76c-.11-2.15,0-4.31,0-6.47Z"/><path d="M152,62c0-2.07-.08-4.15,0-6.22a3.1,3.1,0,0,1,1-2c.26-.21,1.37.29,1.84.74,3,2.93,6,5.94,9,8.91,1.14,1.14,1.19,2.35-.26,3-3,1.42-6,2.71-9.1,3.84-1.6.58-2.53-.32-2.53-2C152,66.1,152,64,152,62Z"/><path d="M130.78,40.93c-2,0-4,0-6,0C123,41,122,40,122.57,38.31c1.12-3.11,2.45-6.14,3.86-9.12.63-1.32,1.8-1.35,2.86-.3,3.13,3.1,6.29,6.16,9.33,9.34,1.25,1.3.7,2.56-1.11,2.66-2.24.12-4.49,0-6.73,0Z"/><path d="M166.94,40.93c-2.07,0-4.15.08-6.22,0a2.85,2.85,0,0,1-2-1c-.23-.32.22-1.41.67-1.87,2.94-3,6-6,9-9,1.26-1.27,2.44-1.14,3.17.43,1.32,2.84,2.57,5.72,3.64,8.67.66,1.83-.21,2.84-2.23,2.8S168.94,40.93,166.94,40.93Z"/><path d="M72.3,68.16h49.94c3.3,0,3.29.18,2.56,3.42-1.86,8.29-7.73,12.27-15.26,14.43a83.87,83.87,0,0,1-23.41,3.21c-11.65,0-23.31.13-34.94-.38-7.8-.34-15.53-1.69-22.67-5.3C22.9,80.69,20.13,75.92,19.1,70c-.09-.51.7-1.5,1.29-1.73a8.17,8.17,0,0,1,2.72-.1H72.3Z"/></svg>