<svg id="f1d39783-885e-46c1-b16c-5f6667f8bc77" data-name="Layer 1" xmlns="http://www.w3.org/2000/svg" viewBox="0 0 157.94 218.68"><path d="M139.9,52.83H119.74c3-3.72,5.35-6.86,7.91-9.86.42-.49,1.54-.52,2.33-.52,7.17,0,14.33,0,21.49,0,2.61,0,4.86.6,6,3.15s.2,4.61-1.63,6.55q-25.62,27.33-51.17,54.71c-6.36,6.81-12.78,13.58-19.06,20.47a6.11,6.11,0,0,0-1.47,3.7c-.11,18.83-.06,37.66-.17,56.49,0,2.08.78,2.94,2.58,3.56q16.93,5.88,33.85,11.85c2.34.83,3.85,2.4,3.79,5a4.65,4.65,0,0,1-3.86,4.86c-7.8,1.64-15.57,3.53-23.44,4.64a119.94,119.94,0,0,1-34.37.11c-8.45-1.25-16.81-3.13-25.19-4.83a4.72,4.72,0,0,1-4-4.79,4.83,4.83,0,0,1,3.61-5.08c11.31-3.89,22.61-7.82,33.94-11.63,2-.66,2.71-1.58,2.7-3.73q-.14-27.74,0-55.49a7.46,7.46,0,0,0-2.22-5.51q-34.56-37.08-69-74.25C.57,50.3-.67,48.28.4,45.67s3.35-3.5,6.08-3.41c1.42,0,2.83,0,4.25,0H96.58l.37.64c-2.45,3.18-4.83,6.43-7.42,9.48-.49.57-1.86.54-2.82.54q-33,0-65.95,0c-.89,0-1.77.08-3.43.16,20.7,22.27,40.94,44,61.44,66.07,20.65-22,41.06-43.72,61.47-65.46ZM59.22,206l.13.77a125.31,125.31,0,0,0,38.85-.35c-5.12-2.12-10.26-3.94-15.44-5.66-1.54-.51-3.36-1.38-4.73-1C71.7,201.63,65.48,203.88,59.22,206Z"/><path d="M98.77,66.81h17.41l.43.72L78.92,107.76,41,67c1.59-.09,2.44-.18,3.3-.18,13.66,0,27.32,0,41,0a5.26,5.26,0,0,0,4.63-2.21q13-16.59,26.25-33a4.83,4.83,0,0,0,1.11-4.55C115.29,18.46,122.21,9.8,131,10a4.24,4.24,0,0,0,4-2c1.51-2.08,3.18-4.06,4.83-6,1.79-2.16,4-2.57,5.87-1.15,2,1.54,2.21,3.75.4,6.16-1.7,2.26-3.6,4.37-5.19,6.71a4.25,4.25,0,0,0-.59,3.13c2.41,8.75-4.59,17.78-13.78,17.79A4.8,4.8,0,0,0,123.14,36c-7.91,9.76-15.69,19.62-23.51,29.46C99.44,65.68,99.29,66,98.77,66.81Z"/></svg>