<svg id="f9c24908-431d-4d47-8ae8-8e23dc15b70f" data-name="Layer 1" xmlns="http://www.w3.org/2000/svg" viewBox="0 0 135.75 181.39"><path d="M43,48.83H80.23c4.58,0,6.5,1.95,6,6.49-1.07,9.09-2.31,18.16-3.51,27.23-1.47,11.22-2.74,22.48-4.52,33.65-3.09,19.47-1.3,39.07-1.88,58.6-.16,5.36-1.29,6.58-6.65,6.58q-26.59,0-53.19,0c-5.66,0-6.94-1.29-6.94-6.91,0-11.08-.27-22.16.06-33.23.37-12.16-1.76-24.05-3.13-36-1-8.76-2.25-17.5-3.38-26.25Q1.67,68.33.33,57.67C.2,56.59.07,55.51,0,54.44c-.18-3.69,1.61-5.6,5.3-5.61Zm.35,10c-10.07,0-20.15.06-30.22,0-2.14,0-2.57.77-2.32,2.66,1.7,13,3.27,25.92,5,38.87,2,14.93,4.46,29.82,3.59,45-.13,2.26.92,3.05,2.85,3.58a77.52,77.52,0,0,0,40.92.13c2.61-.69,3.51-1.82,3.34-4.47-1.09-16.77,2.29-33.16,4.3-49.67,1.36-11.15,2.95-22.28,4.51-33.4.31-2.19-.48-2.68-2.53-2.67C63,58.85,53.2,58.8,43.37,58.8Z"/><path d="M135.05,43.85c.26,22.49-17.22,40.56-37,43.38-2,.29-4.12.47-6.19.67-1.19.11-2-.29-1.81-1.67a60.57,60.57,0,0,1,1.09-7.14c.17-.64,1.62-1.23,2.55-1.33a34.75,34.75,0,0,0,22.1-10.88c17.21-18.25,8.94-48.43-15.17-55.39-20-5.76-39.55,6.65-43,27.33-.24,1.41-.78,2.08-2.24,2-2.08,0-4.16,0-6.24,0-1.38,0-1.88-.58-1.73-2C49.15,21.72,62.15,6.6,78.7,1.76a44,44,0,0,1,53.93,28c1.52,4.49,2.1,9.3,3.12,14Z"/><path d="M109.16,47c2.08,0,4.16,0,6.25,0,1.64,0,2.49.83,2,2.32-1.16,3.18-2.5,6.31-3.92,9.38-.56,1.22-1.69,1.3-2.68.33-3.14-3.09-6.28-6.19-9.36-9.35-.39-.4-.74-1.38-.52-1.72a2.53,2.53,0,0,1,1.79-.92C104.83,47,107,47,109.16,47Z"/><path d="M88,26.06c0,2.07.07,4.15,0,6.23a2.4,2.4,0,0,1-.89,1.8,2.26,2.26,0,0,1-1.92-.57c-3.12-3-6.15-6.06-9.2-9.11-1-1.05-1-2.22.29-2.86,3-1.4,6-2.71,9.11-3.85,1.68-.61,2.7.19,2.66,2.12S88,24,88,26.06Z"/><path d="M95.79,16.82c3.74,1.76,7,3.23,10.23,4.94.38.21.44,2.12,0,2.62-2.93,3.16-6,6.18-9.13,9.16a2.43,2.43,0,0,1-1.94.54c-.4-.11-.84-1-.85-1.58-.07-4.32-.12-8.65,0-13C94.12,18.75,95,18,95.79,16.82Z"/><path d="M94,62c0-2.09-.08-4.17,0-6.25a2.84,2.84,0,0,1,1-2c.34-.22,1.41.24,1.88.69,3.05,2.94,6,6,9,9,1.28,1.27,1.11,2.46-.45,3.18-2.93,1.34-5.91,2.6-8.94,3.69C95,70.78,94,70,94,68.19V62Z"/><path d="M73,40.85c-2.08,0-4.15,0-6.22,0-1.74,0-2.67-.86-2.1-2.46,1.11-3.1,2.41-6.14,3.82-9.11.68-1.43,1.87-1.45,3-.29,3,3,6.12,6,9.13,9.13.39.41.76,1.35.55,1.69a2.45,2.45,0,0,1-1.74,1c-2.15.12-4.31,0-6.46,0Z"/><path d="M108.83,40.85c-2.08,0-4.16,0-6.24,0-.58,0-1.52-.37-1.62-.75a2.36,2.36,0,0,1,.49-1.94c3-3.11,6.09-6.15,9.16-9.19,1-1,2.23-1.08,2.87.27,1.41,3,2.72,6,3.86,9.14.57,1.56-.23,2.55-2,2.53-2.17,0-4.33,0-6.5,0Z"/><path d="M43,81.88c6.33,0,12.66.06,19,0,2.15,0,2.76.7,2.46,2.79C62.57,98.07,60.63,111.5,59,125a110.79,110.79,0,0,0-.38,14.47c0,2.14-.78,3-2.75,3.3a76.83,76.83,0,0,1-25.85,0c-1.87-.31-2.68-1.16-2.57-3.17.65-13-2.09-25.69-3.62-38.48q-1-8.31-2.19-16.59c-.28-2,.33-2.68,2.36-2.65C30.34,81.94,36.67,81.88,43,81.88Z"/></svg>