<svg id="a2971fae-4f9f-4fcf-9276-8436f106432e" data-name="Layer 1" xmlns="http://www.w3.org/2000/svg" viewBox="0 0 151.03 153.42"><path d="M75.8.43h68.7c5.3,0,6.93,1.92,6.45,7.24-1.63,18.24-3.19,36.5-4.8,54.75-1.45,16.34-3,32.68-4.4,49q-1.6,17.92-3.13,35.84c-.4,4.57-2.06,6.14-6.68,6.13q-56.71-.1-113.42-.23c-4.52,0-6.18-1.42-6.6-6-.91-9.7-1.72-19.41-2.54-29.12Q7.07,90.72,4.78,63.33q-1.58-18.8-3.15-37.6C1.09,19.26.59,12.78,0,6.31-.3,2.41,1.76,0,5.6,0H75.8Zm-.07,9.88v-.2H12.28c-1.36,0-1.87.67-1.74,2.08.67,7.55,1.26,15.1,1.9,22.65q3.24,38,6.45,75.92c.15,1.81.56,3,2.5,3.38,7.45,1.3,14.85,3,22.34,3.87a287.25,287.25,0,0,0,47.38,1.34,200.75,200.75,0,0,0,38.28-5.1,2.65,2.65,0,0,0,2.34-2.71c.52-6.56,1.18-13.11,1.75-19.66q3.42-39.19,6.83-78.38c.28-3.18.28-3.2-2.89-3.2Z"/><path d="M21.37,43.91c1.1,0,1.92-.13,2.73-.13H125.79c3.89,0,3.78,0,3.43,3.83C128,61,126.85,74.48,125.68,87.93c-.41,4.73-.85,9.46-1.17,14.19-.15,2.1-1.08,3-3.19,3.35a242.31,242.31,0,0,1-57,3.49c-11.78-.61-23.49-2.4-35.23-3.67-1.93-.21-2.83-1.19-3-3.25-1.06-13.87-2.21-27.74-3.35-41.6C22.36,55.05,21.87,49.67,21.37,43.91ZM44.49,92h-.05q-1.09-13.42-2.18-26.85c-.26-3.14-.47-6.3-.82-9.43-.23-2-1.32-3.69-3.38-3.73a5.74,5.74,0,0,0-3.74,1.76c-.65.67-.67,2.18-.59,3.29q1.46,18.65,3,37.28c.21,2.53,2,4.24,4.12,4.14s3.77-2,3.71-4.72C44.59,93.16,44.53,92.58,44.49,92Z"/></svg>