<svg id="afebc963-0454-4e7e-8415-73c9895cab84" data-name="Layer 1" xmlns="http://www.w3.org/2000/svg" viewBox="0 0 139.02 181.73"><path d="M69.58.12c11.58,0,23.16.07,34.73,0a8.3,8.3,0,0,1,7.08,3.37,131.23,131.23,0,0,1,20.07,35.47c4.68,12.14,7.72,24.66,7.56,37.72-.2,16-5.22,30.1-18.12,40.51-8.29,6.7-18,10.31-28.33,12.18-5.23.94-10.56,1.36-15.85,1.92-1.38.15-1.88.75-1.86,2.07.07,5.58,0,11.17.24,16.74a3.69,3.69,0,0,0,2,2.63c11.6,4.07,23.25,8,34.88,11.95a22,22,0,0,1,2.09.81,5.13,5.13,0,0,1,3.16,5.21c-.11,2.34-1.28,4.27-3.66,4.82-7.37,1.68-14.72,3.52-22.18,4.7A148.47,148.47,0,0,1,58,181.29,157.61,157.61,0,0,1,26.82,176c-4.87-1.34-6.8-5.78-3.91-9a9.74,9.74,0,0,1,4-2.33c11.6-4.05,23.24-8,34.87-12,1.45-.49,2.31-1.21,2.27-3-.12-5.33-.08-10.67,0-16,0-1.86-.59-2.37-2.41-2.48-12.38-.73-24.48-2.8-35.55-8.76C10.2,113.88,1.85,100.23.3,82.35c-1.48-17,2.64-33,9.24-48.54A131.35,131.35,0,0,1,26.75,4.39c2.34-3,4.9-4.47,8.86-4.39,11.32.25,22.65.09,34,.09Zm0,10c-10.32,0-20.65.09-31-.07A6.13,6.13,0,0,0,33,12.91,123,123,0,0,0,17.38,41.25c-5,12.84-8.3,26.05-7.13,40,1.39,16.51,9.69,28.21,25.13,34.51,12.26,5,25.17,6,38.24,5.56,11.1-.41,22.08-1.73,32.29-6.59,11.81-5.61,19.33-14.64,21.86-27.62,1.88-9.66,1.17-19.22-1-28.74a120.65,120.65,0,0,0-21.19-45.85,5.36,5.36,0,0,0-4.82-2.4C90.35,10.18,79.94,10.12,69.53,10.13ZM49.08,168.64l.13.77a137.79,137.79,0,0,0,40.6-.36,8.87,8.87,0,0,0-2.67-1.42c-3.6-1.25-7.28-2.3-10.79-3.75-4.38-1.82-8.47-2.41-13.06-.3S53.83,167,49.08,168.64Z"/><path d="M69.5,54.05c15.06,0,30.13.07,45.19-.07,2.51,0,3.37,1,3.87,3.1a74.9,74.9,0,0,1,2.17,24.27c-1.2,13.44-8.24,22.57-20.75,27.34-13.1,5-26.76,5.53-40.57,4.4-7.76-.63-15.32-2-22.48-5.23-11.16-5-17.33-13.68-18.7-25.72-1-8.69.14-17.26,2.28-25.72C21,54.47,21.92,54,23.8,54,39,54.08,54.26,54.05,69.5,54.05ZM35.65,70a3.39,3.39,0,0,0-2.94-4.47c-2.3-.23-3.75,1-4.28,3.52a36.38,36.38,0,0,0,.49,15.85,18.86,18.86,0,0,0,10,12.73c1.94,1,3.86,1.14,5.4-.76,1.68-2.09,1.19-4.35-1.59-6-3.77-2.24-6.13-5.36-6.53-9.73C35.88,77.47,35.82,73.74,35.65,70Z"/></svg>