<svg id="ad6acee2-7070-484e-a13c-07bc1d32268d" data-name="Layer 1" xmlns="http://www.w3.org/2000/svg" viewBox="0 0 180.21 197.92"><path d="M130.3,71.66V167.2c0,2.9-.1,2.92-3.46,3.36A338.29,338.29,0,0,1,67.57,173c-10.37-.45-20.7-1.71-31-2.59-1.77-.15-2.38-.94-2.36-2.47,0-4.17-.09-8.34-.09-12.51V71.58S75.39,84.87,130.3,71.66ZM51.13,124.05q0-16.12,0-32.26a3.59,3.59,0,0,0-.21-1.26A3.64,3.64,0,0,0,47.06,88a3.69,3.69,0,0,0-3.72,3.21,14.51,14.51,0,0,0,0,1.75v57.7c0,2,0,4.1,0,6.15s1.51,3.05,3.59,3.34A3.93,3.93,0,0,0,51.05,157a14.9,14.9,0,0,0,.08-2.41Z"/></svg>