<svg id="fbdccecd-9f1e-4ce4-8280-2b38d26ce0d6" data-name="Layer 1" xmlns="http://www.w3.org/2000/svg" viewBox="0 0 180.21 197.92"><path d="M176.84,104.27c0-6.44-2.66-11.37-7.7-15.17s-14.52-5.46-20.65-5.81c0,0-.45-17.55-.46-22.83v-.85a49,49,0,0,0,0-5.61H16.27c0,1.68-.11,3.2-.07,4.49V59c0,37.24,0,81.69,0,118.93,0,5.11,1.16,6.92,6.22,7.63,13.34,1.87,26.68,3.92,40.09,5a276.74,276.74,0,0,0,51.64-.91c9.26-1,18.46-2.52,27.65-4,5.17-.84,6.22-2.34,6.22-7.55,0-13.16,0-8.33,0-21.49,0-1.82.36-2.51,2.45-2.68a54,54,0,0,0,11.47-2c9.93-3.07,15-10.34,15-20.68C176.91,122.26,176.79,113.26,176.84,104.27ZM135.25,176.7c-7.75,1-15.47,2.38-23.24,3.12a313.19,313.19,0,0,1-59.37,0c-7.62-.72-15.18-2-22.77-2.92-2.57-.32-3.5-1.33-3.49-4.16.11-33.79.06-74.26.05-108.54l5.44.73c6.06,1,12.13,1.85,18.23,2.5a292.71,292.71,0,0,0,31.45,1.71h1.23a292.85,292.85,0,0,0,31.45-1.71c6.09-.65,12.16-1.54,18.23-2.5l5.8-.78q-.07,54.47-.09,108.92C138.17,175.37,137.46,176.41,135.25,176.7Zm27.69-36.55c-3.7,2.68-8,3.55-12.43,3.88-2.08.15-2.55-.72-2.54-2.59.07-7.74,0-15.49,0-23.23,0-7.57.05-15.15,0-22.72,0-1.91.62-2.44,2.45-2.36a22.74,22.74,0,0,1,12.64,4,8.5,8.5,0,0,1,3.78,7.43q-.15,14.1,0,28.22A8.52,8.52,0,0,1,162.94,140.15Z"/></svg>