<svg id="ad84e2d0-bfad-4cfe-b665-c7c1c087460f" data-name="Layer 1" xmlns="http://www.w3.org/2000/svg" viewBox="0 0 180.21 197.92"><defs><style>.ba85ff2f-6b23-4e16-bda9-556ac2f24fa1{fill:#010101;}</style></defs><path class="ba85ff2f-6b23-4e16-bda9-556ac2f24fa1" d="M107.33,22.34l.08-.19Z"/><path class="ba85ff2f-6b23-4e16-bda9-556ac2f24fa1" d="M97.39,99l12.85-34.06c1.51-4,1.51-4,1.52-4h0L115,52.18h0L123.42,30h0a5.28,5.28,0,0,1,6.8-3.07,4.4,4.4,0,0,1,.5.21l.05,0,0,0a5.27,5.27,0,0,1,2.51,6.55,8.86,8.86,0,0,0,.23,6.8,8.77,8.77,0,0,0,5,4.64A8.88,8.88,0,0,0,149.94,40h0a23.09,23.09,0,0,0-6.53-25.59l0,0A23,23,0,0,0,124.1,9.21H124a23.08,23.08,0,0,0-16,11.83l-.06.11c-.37.72-.71,1.45-3.64,9.07L80.8,92.59a13.4,13.4,0,0,0,7.26,6C93.5,100.69,97.39,99,97.39,99Zm12.1-43.82-1.63,4.34c-2,5.27-9.58,13.76-14.94,12.79l6-15.86A15.68,15.68,0,0,0,109.49,55.13Zm10.07-26.7,0,.09c-1.09,2.88-6.25,13.05-9,14.32a11.38,11.38,0,0,1-6.79.84l6.9-18.18A15.67,15.67,0,0,0,119.56,28.43Zm-30,66.28a4.73,4.73,0,0,1-2.75-6.08l.78-2.07a15.68,15.68,0,0,0,10.56-1.27L95.61,92A4.73,4.73,0,0,1,89.53,94.71ZM133.66,24a8.51,8.51,0,0,0-1-.62,11.52,11.52,0,0,1-6.22-10.33A18.88,18.88,0,0,1,135,14.18a19.59,19.59,0,0,1,3.49,1.74A15.67,15.67,0,0,0,133.66,24Zm9.91,17.12a4.68,4.68,0,0,1-3.6.12,4.74,4.74,0,0,1-2.64-2.47,4.67,4.67,0,0,1-.41-2.2,11.56,11.56,0,0,1,10.2-2.49A18.74,18.74,0,0,1,146,38.5,4.68,4.68,0,0,1,143.57,41.14Z"/></svg>