<svg id="a0e3704f-96bc-4461-a767-cd6f831c5bc3" data-name="Layer 1" xmlns="http://www.w3.org/2000/svg" viewBox="0 0 180.21 197.92"><defs><style>.b453bc56-73b1-4032-8ab6-1232d8cd5aea{fill:none;stroke:#000;stroke-miterlimit:10;stroke-width:11px;}</style></defs><path class="b453bc56-73b1-4032-8ab6-1232d8cd5aea" d="M46.09,59.57a78.87,78.87,0,0,0-34.22,62.71A78,78,0,0,0,40.7,185.09L36.63,190H146.05L142,185.36s26.09-17.76,26.09-60.9c0-26.19-12.89-50.81-32.67-65Z"/><path d="M127.6,71.43l-24.88,0-31,0-17.82,0a65.13,65.13,0,0,0-28.24,51.75,64.34,64.34,0,0,0,23.8,51.85l83.58.22s21.53-14.66,21.53-50.26C154.57,103.44,143.93,83.12,127.6,71.43Zm-1.17,94.06a5,5,0,0,1-8.32-5.55c30.64-46-1.67-71.12-3.06-72.17a5,5,0,0,1,6-8,55.19,55.19,0,0,1,16.47,22.64C147,126.54,136.74,150,126.43,165.49Z"/></svg>