<svg id="aa68f2e2-897b-42b8-9008-23334904f4bc" data-name="Layer 1" xmlns="http://www.w3.org/2000/svg" viewBox="0 0 180.21 197.92"><g id="b8834dcb-a11e-40a5-b866-402bdc44c08f" data-name="AFaJM0.tif"><path d="M95.86,96.38c-5.29-10-10.47-20-16.09-29.76-2.36-4.11-.91-7.84-.22-11.78l-.28,7.82c3.17-3.77,7.44-6.06,7.69-11.2.24-4.86-2.37-8.41-5.43-11.74a1.1,1.1,0,0,0-1,0c-3.18,2.7-6,5.63-7.17,9.84a10.32,10.32,0,0,0,2,9.38A15.24,15.24,0,0,1,77,62.65c.08.22-.15.57-.23.86a3.21,3.21,0,0,1-.69-.5q-7.38-9.25-14.72-18.53a12.51,12.51,0,0,1-1.42-2.29C58.78,39.88,59,39.05,61,37.46a17.24,17.24,0,0,0,6.79-11.13c.71-4.65,3.15-8.23,6.23-11.53.42-.45.77-1,1.16-1.46l0,0A16.28,16.28,0,0,0,66.31,19a5.89,5.89,0,0,0-.8,2.51c-.58,2.85-1,5.74-1.67,8.54a10.12,10.12,0,0,1-3.79,5.31,68.93,68.93,0,0,0-6.28,6.28c-5.44,5.67-11.59,10.13-19.39,12.11A24.51,24.51,0,0,0,27.54,57c-1.16.73-1.84,2.23-2.49,3.59A28.32,28.32,0,0,1,36.83,55c1-.24,2.21.19,3.32.24a8.71,8.71,0,0,0,2.8-.07,9.52,9.52,0,0,0,5.49-4.31c1.7-2.84,3.12-3.16,6.39-2.74,4.85.63,8.07,3.71,10.92,7.09C71,61.44,75.91,68,81,74.33c.86,1.08.38,1.8-.64,1.88-2.75.22-5.51.2-8.27.27l0-.79,8-.67.32-.6a35.13,35.13,0,0,0-5.13-3.37c-4-1.77-8.19-3-12.54-.89a14.42,14.42,0,0,0-6.06,5.67,1.26,1.26,0,0,0,0,1.18c4.35,4.14,9.12,7.6,15.53,5.88,2.62-.7,5-2.49,7.41-3.8a7.88,7.88,0,0,0,.91-.64c1.23-.94,2-1.14,2.89.66,3.66,7.45,5.3,9.8,9.23,17.13.6,1.12,2,1.88,3.2,2.61.91.56,1.14-.06.8-.85"/><path d="M43.88,22.29c1.09-2.23-.65-2.6-2.39-3.05a10,10,0,0,0-12.07,7.28,3.71,3.71,0,0,1-1.64,2.35A12.47,12.47,0,0,0,22,34.61c-1.71,3-3.21,6.18-4.73,9.32a3.63,3.63,0,0,0-.25,2c.08.64.39,1,1.13.3C19.8,44.6,21,44.51,23,45.65a4.84,4.84,0,0,1,1.28.93c3.71,4.29,8.43,4.51,13.53,3.5s9.94-2.82,13.41-7.14c.62-.78.63-1.15,0-1.77s-1-1.13-1.5-1.64C44.1,34.33,43.62,30.24,43.88,22.29Z"/><path d="M59.21,8.07A9.68,9.68,0,0,0,50,12.4a4.05,4.05,0,0,0-.51,1.14c-.71,2.17-1,4.55-2.17,6.48a10.07,10.07,0,0,0-.61,9.55,57.78,57.78,0,0,0,3.86,7.24c1.17,1.9,2.33,2,4.28.87,7.07-4.15,9.52-11.4,6.75-19.18a20.55,20.55,0,0,1-.65-6,4.15,4.15,0,0,1,.83-2c1.05-1.75,1.05-1.8-1.1-2.18C60.14,8.2,59.62,8.13,59.21,8.07Z"/><path d="M26.25,26.87a57.76,57.76,0,0,1,4.27-5.52c3.33-3.42,7.33-4.65,12-3,.46.16,1.1-.2,1.66-.31a5.08,5.08,0,0,0-.4-1.45A23,23,0,0,1,40.07,6.44a12.77,12.77,0,0,0-.28-1.87c-.42-1.45-1.4-1.75-2.67-.91-2.41,1.59-4.9,3.08-7.23,4.79A8,8,0,0,0,28.16,11c-.73,1.27-1.14,2.82-2.11,3.84C22.24,18.83,23.51,23.58,26.25,26.87Z"/><path d="M20.48,32.74a7.93,7.93,0,0,0,1.24-.65c.53-.43,1-1,1.53-1.37,1.37-1.06,1.79-1.81.63-3.69-1.29-2.09-1.6-4.84-2.13-7.35-.21-1-.51-1.17-1.06-.47a34,34,0,0,0-2.45,3.71c-.52.85-.71,2-1.4,2.61-1.5,1.33-1.71,2.33-.34,4.11C17.51,30.94,19.15,31.74,20.48,32.74Z"/><path d="M41.83,4.33a19.38,19.38,0,0,0,.24,4.33A54.85,54.85,0,0,0,44.51,15a4.46,4.46,0,0,0,.91,1.05c.25-.35.47-.72.74-1,.93-1.07,1.83-2.17,2.83-3.18s.75-1.55-.39-2a11.67,11.67,0,0,1-6.09-5.51Z"/><path d="M75.21,13.34l.25-.06-.14-.13-.09.23Z"/></g></svg>