<svg id="e8095283-7d3c-466a-8701-7be517695d59" data-name="Layer 1" xmlns="http://www.w3.org/2000/svg" viewBox="0 0 180.21 197.92"><defs><style>.a35ccdc5-44d0-4aa7-b107-ef7fca0b0f10{fill:#010101;}</style></defs><path class="a35ccdc5-44d0-4aa7-b107-ef7fca0b0f10" d="M118.77,32.53h0c-2.29-3.84-3.59-6.38-1.53-9.81a7.22,7.22,0,1,0-12.39-7.43c-6.6,11-2.1,18.56,1.52,24.63h0c2.14,3.59,3,5.37,1.79,7.31-1.38,2.31-4,2.38-8.18,2.32h0c-7.28-.12-15.53-.26-21.56,9.81a2.41,2.41,0,0,0,4.13,2.48c4.06-6.77,9.12-7.5,15-7.5l-.08,4.81c-3.89.07-8.11.78-10.74,5.16-2.43,4.06-1.19,7.6.48,10.61l-4.09,2.54a30.68,30.68,0,0,1-1.63-3.09,2.41,2.41,0,0,0-4.4,2A48.72,48.72,0,0,0,80.22,82c2.29,3.71,3.48,6,1.51,9.26a7.23,7.23,0,0,0,12.4,7.43c6.57-11,2-18.35-1.64-24.28-2.09-3.39-3.11-5.27-1.68-7.67,1.68-2.79,4.49-2.89,9-2.82h0c7.06.12,15.07.25,20.79-9.3S122.29,38.43,118.77,32.53ZM109,17.76a2.4,2.4,0,0,1,3.3-.83,2.42,2.42,0,0,1,1.1,1.48,2.37,2.37,0,0,1-.27,1.82c-3,5-1.57,9.2.32,12.67l-4.14,2.47C106.34,30.2,104.46,25.29,109,17.76Z"/><path class="a35ccdc5-44d0-4aa7-b107-ef7fca0b0f10" d="M77.68,71.24A2.41,2.41,0,0,0,80.12,69v-.07a2.41,2.41,0,0,0-4.81-.32v.09a2.41,2.41,0,0,0,2.25,2.56Z"/></svg>