<svg id="b389a022-f784-499c-b527-884bad1cb3d1" data-name="Layer 1" xmlns="http://www.w3.org/2000/svg" viewBox="0 0 180.21 197.92"><path d="M153.6,92.64a43.93,43.93,0,0,0-30.07-82.35c-16.48,4.78-29.66,20-31.54,37.19-.15,1.4.26,2.05,1.7,2,2,0,4-.11,6,0s2.41-.79,2.68-2.45a35.45,35.45,0,0,1,1.5-6,34.13,34.13,0,0,1,42.07-20.93c18,5.3,28.81,26.86,21.62,44.26-3.45,8.34-8.71,14.39-15.81,18Z"/><path d="M132.68,34.53c0,2.16.06,4.32,0,6.47,0,.58-.38,1.53-.76,1.63a2.43,2.43,0,0,1-1.95-.51c-3.1-3-6.12-6.06-9.17-9.1-1.16-1.17-1.08-2.32.37-3,2.9-1.36,5.85-2.65,8.87-3.74,1.87-.68,2.77.3,2.7,2.29s0,4,0,6Z"/><path d="M138.84,34.5c0-2.08,0-4.15,0-6.22,0-1.74.89-2.62,2.5-2,3.09,1.12,6.11,2.43,9.11,3.79,1.35.61,1.47,1.78.45,2.83q-4.6,4.71-9.33,9.29c-.41.39-1.37.77-1.7.57a2.49,2.49,0,0,1-1-1.77c-.12-2.15-.05-4.31-.05-6.46Z"/><path d="M117.66,49.49c-2,0-4,0-6,0-1.82,0-2.84-.9-2.22-2.63,1.12-3.1,2.45-6.14,3.86-9.12.63-1.32,1.8-1.35,2.86-.29,3.13,3.09,6.29,6.15,9.33,9.33,1.25,1.31.7,2.56-1.11,2.66-2.24.12-4.49,0-6.73,0Z"/><path d="M153.82,49.49c-2.07,0-4.15.08-6.22,0a2.93,2.93,0,0,1-2-1c-.23-.33.22-1.42.67-1.88,2.94-3,6-6,8.95-9,1.26-1.26,2.44-1.14,3.17.43,1.32,2.84,2.57,5.73,3.64,8.67.66,1.83-.21,2.84-2.23,2.8S155.82,49.49,153.82,49.49Z"/></svg>