<svg id="bb6f5260-354f-4bca-a184-6289982d8a3a" data-name="Layer 1" xmlns="http://www.w3.org/2000/svg" viewBox="0 0 180.21 197.92"><path d="M149.36,54.25c2.13,0,4,.49,4.89,2.58s.15,3.75-1.33,5.34Q132,84.45,111.19,106.77c-5.19,5.56-10.42,11.08-15.54,16.69a5,5,0,0,0-1.2,3c-.09,15.36,0,30.71-.14,46.07a2.62,2.62,0,0,0,2.1,2.9q13.82,4.78,27.6,9.66c1.91.67,3.14,1.95,3.1,4.06a3.82,3.82,0,0,1-3.15,4c-6.36,1.33-12.69,2.87-19.12,3.78a98.15,98.15,0,0,1-28,.09c-6.89-1-13.71-2.55-20.54-3.94A3.87,3.87,0,0,1,53,189.16,4,4,0,0,1,56,185c9.22-3.17,18.43-6.38,27.68-9.48a2.72,2.72,0,0,0,2.2-3q-.12-22.62,0-45.25a6.07,6.07,0,0,0-1.8-4.5Q55.86,92.53,27.75,62.21c-1.43-1.53-2.44-3.18-1.57-5.3s2.73-2.86,5-2.79c1.16,0,2.31,0,3.47,0ZM42.78,62.8c-.72,0-1.44.07-2.79.13l50.1,53.88,50.12-53.38-.28-.68ZM74.15,187.63l.1.63a102.62,102.62,0,0,0,31.68-.29c-4.18-1.73-8.37-3.21-12.59-4.61-1.25-.42-2.74-1.13-3.85-.8C84.32,184.07,79.25,185.91,74.15,187.63Z"/></svg>