<svg id="a3ad5783-d28a-4922-be0e-696032211448" data-name="Layer 1" xmlns="http://www.w3.org/2000/svg" viewBox="0 0 180.21 197.92"><path d="M87.71,54q24.75,0,49.49,0c5.14,0,6.92,2.18,6.42,7.22-1.47,14.86-2.83,29.73-4.25,44.59q-2.19,22.91-4.43,45.81-1.68,17.49-3.34,35c-.22,2.3-.42,4.6-.74,6.89a4.65,4.65,0,0,1-4.8,4.38c-1.56.08-3.14,0-4.7,0H52.07c-1.07,0-2.15,0-3.21-.07a4.53,4.53,0,0,1-4.56-4.33q-1.42-13.67-2.74-27.33Q38.78,137.59,36,109q-1.62-16.87-3.19-33.75L31.53,61c-.46-5,1.33-7,6.44-7Zm-.25,9.91H44.64c-1.47,0-2.89-.14-2.67,2.1.93,9.61,1.78,19.23,2.7,28.84,1.51,15.76,3.07,31.53,4.58,47.3q2.07,21.67,4.08,43.37c.18,1.93.94,2.66,3,2.65q31.18-.07,62.37,0c2.28,0,3-.85,3.19-3,.37-5.43.87-10.86,1.39-16.28,1.82-18.88,3.7-37.77,5.52-56.65,1.47-15.19,2.84-30.4,4.4-45.58.24-2.36-.49-2.84-2.63-2.83C116.17,63.94,101.82,63.91,87.46,63.91Z"/><path d="M87.43,75.89c11.41,0,22.82,0,34.23,0,2.25,0,2.86.64,2.64,2.87q-2.92,29.08-5.67,58.19c-1.24,12.94-2.5,25.87-3.59,38.82-.22,2.68-1.2,3.39-3.83,3.37q-24-.17-48,0c-2.29,0-3.07-.77-3.26-2.9-1-11.53-2.12-23.06-3.21-34.58q-2.33-24.37-4.67-48.75c-.43-4.56-.85-9.12-1.2-13.69-.26-3.34-.21-3.35,3.05-3.35H87.43ZM89,107a8.35,8.35,0,0,0-.31-1.18c-2.34-5-4.6-10-7.12-14.84a3.32,3.32,0,0,0-3-1c-5,2.13-9.81,4.51-14.66,6.88a2.14,2.14,0,0,0-1,3.16c2.23,4.73,4.42,9.49,6.71,14.19.61,1.27,1.57,2.2,3.21,1.42,4.81-2.26,9.64-4.47,14.42-6.8C88,108.44,88.5,107.52,89,107Zm-1.41,34.62a5.54,5.54,0,0,0-1.07.19c-5.06,2.49-10.14,4.92-15.1,7.59a3.13,3.13,0,0,0-.78,2.91q3.34,7.36,7.18,14.5a3.06,3.06,0,0,0,2.79,1c4.9-2.21,9.71-4.65,14.51-7.07,1.18-.6,2.06-1.53,1.33-3-2.41-4.91-4.82-9.82-7.31-14.69C88.79,142.44,88,142,87.57,141.64Zm15-2.59c.51-.5,1.42-1,1.77-1.8,2.15-4.67,4.17-9.41,6.25-14.11.75-1.68.33-3-1.32-3.7-4.69-2.1-9.41-4.13-14.11-6.2-1.86-.82-3-.11-3.73,1.64-2,4.57-4,9.11-6.05,13.65-.87,1.93-.21,3.14,1.65,3.95,4.55,2,9.09,4,13.64,6A16.35,16.35,0,0,0,102.54,139.05Z"/></svg>