<svg id="a0ad0edc-ac8e-4eea-b808-f4d1b8fd6805" data-name="Layer 1" xmlns="http://www.w3.org/2000/svg" viewBox="0 0 180.21 197.92"><path d="M87.71,54q24.75,0,49.49,0c5.14,0,6.92,2.18,6.42,7.22-1.47,14.86-2.83,29.73-4.25,44.59q-2.19,22.91-4.43,45.81-1.68,17.49-3.34,35c-.22,2.3-.42,4.6-.74,6.89a4.65,4.65,0,0,1-4.8,4.38c-1.56.08-3.14,0-4.7,0H52.07c-1.07,0-2.15,0-3.21-.07a4.53,4.53,0,0,1-4.56-4.33q-1.42-13.67-2.74-27.33Q38.78,137.59,36,109q-1.62-16.87-3.19-33.75L31.53,61c-.46-5,1.33-7,6.44-7Zm-.25,9.91H44.64c-1.47,0-2.89-.14-2.67,2.1.93,9.61,1.78,19.23,2.7,28.84,1.51,15.76,3.07,31.53,4.58,47.3q2.07,21.67,4.08,43.37c.18,1.93.94,2.66,3,2.65q31.18-.07,62.37,0c2.28,0,3-.85,3.19-3,.37-5.43.87-10.86,1.39-16.28,1.82-18.88,3.7-37.77,5.52-56.65,1.47-15.19,2.84-30.4,4.4-45.58.24-2.36-.49-2.84-2.63-2.83C116.17,63.94,101.82,63.91,87.46,63.91Z"/></svg>