<svg id="bcc7f892-c502-4829-873f-63b6e1baf9f3" data-name="Layer 1" xmlns="http://www.w3.org/2000/svg" viewBox="0 0 180.21 197.92"><path d="M93.42,54.39c11,0,22,0,33,0,1.92,0,2.64.46,3.07,2.44a132.82,132.82,0,0,1,3.26,30.84,80,80,0,0,1-3.3,20.8c-3.17,10.9-6.47,21.78-10,32.56a37.36,37.36,0,0,0-1.33,17c1.41,10.6,2.76,21.22,4.14,31.83a4.51,4.51,0,0,1-3.59,5.16c-6,1-12.11,2-18.21,2.46a116.4,116.4,0,0,1-30.26-1.88c-3.82-.7-6-2.91-5.6-5.72.2-1.33.44-2.66.63-4,.8-5.91,1.63-11.82,2.36-17.75.56-4.52.86-9.09,1.51-13.6s-.29-8.94-1.67-13.27c-3.15-10-6.42-19.91-9.33-29.95-3.71-12.79-5.2-25.83-3.17-39.11.81-5.34,1.83-10.64,2.65-16,.24-1.58,1.07-1.8,2.43-1.79C71.11,54.41,82.26,54.39,93.42,54.39Zm0,6c-9.36,0-18.71,0-28.07,0-1.56,0-2.1.59-2.27,2-.29,2.29-.61,4.58-1,6.86a90.61,90.61,0,0,0,3.15,41.6c3,9.78,6.29,19.48,9.35,29.25,1.21,3.85,2.45,7.74,2,11.9-1.31,11.65-2.56,23.3-3.9,34.94-.13,1.15.23,1.54,1.25,1.67,2.52.33,5,.78,7.53,1a117.19,117.19,0,0,0,29-.62c4.73-.69,3.85-.27,3.41-4.37-1.16-10.81-2.53-21.6-3.57-32.42a21.41,21.41,0,0,1,.76-7.84c2-7,4.42-13.93,6.65-20.9,3.36-10.51,6.62-21,7.79-32.1,1-9.87-.31-19.56-1.9-29.25-.24-1.44-.93-1.74-2.28-1.73C112,60.38,102.69,60.36,93.4,60.36Z"/></svg>