<svg id="b27f7d99-2b16-4d41-89f6-c7cb42f00ce3" data-name="Layer 1" xmlns="http://www.w3.org/2000/svg" viewBox="0 0 180.21 197.92"><path d="M93.28,78.87c8.34,0,16.68,0,25,0,1.72,0,2.17.56,2.25,2.22a80,80,0,0,1-3.64,26.33c-3.14,10.62-6.52,21.18-10,31.67-2.39,7.07-2.11,14.18-1.25,21.38.78,6.43,1.51,12.87,2.3,19.3.13,1-.25,1.47-1.23,1.52-3.1.17-6.19.47-9.28.47q-8,0-16.05-.33c-2.63-.1-2.61-.25-2.33-2.82.91-8.57,1.74-17.15,2.76-25.7.64-5.46-.92-10.49-2.47-15.55-3.57-11.67-7.35-23.28-10.7-35a66.88,66.88,0,0,1-2.3-21.93c.08-1.39.69-1.53,1.78-1.52Q80.69,78.89,93.28,78.87ZM101,114.55a3.14,3.14,0,0,0-3.1-3.11,3.25,3.25,0,0,0-3.07,3.17,3.11,3.11,0,0,0,3.13,3.07A3,3,0,0,0,101,114.55Zm3.23-23.86a3,3,0,0,0-3-3.12,3.14,3.14,0,0,0-3.1,3.1,3.08,3.08,0,0,0,3.08,3.1A3,3,0,0,0,104.19,90.69Zm-9.26,57.77a3.07,3.07,0,1,0,.07,6.13,3.12,3.12,0,0,0,3.08-3.11A3.08,3.08,0,0,0,94.93,148.46ZM104,132.71a3.26,3.26,0,0,0-3-3.21,3.11,3.11,0,0,0-3.16,3,3.17,3.17,0,0,0,3,3.23A3.33,3.33,0,0,0,104,132.71Zm7.7-28.84a3.09,3.09,0,0,0-3-3.16,3.14,3.14,0,0,0-3.23,3,3.2,3.2,0,0,0,3,3.17A3.13,3.13,0,0,0,111.69,103.87Z"/></svg>