<svg id="a55a8e57-0d37-42ed-9e1c-58677e29a2ee" data-name="Layer 1" xmlns="http://www.w3.org/2000/svg" viewBox="0 0 180.21 197.92"><path d="M98.66,89.64C90.21,59,79.79,25.21,79.07,23.35,74.92,11.9,66.19,5.46,55.46,5.46A35.42,35.42,0,0,0,47,6.6l-23.9,6.58a6,6,0,0,0-4.15,7l1.28,4.85A5.35,5.35,0,0,0,23,28.62a5.56,5.56,0,0,0,3,.86,6,6,0,0,0,1.58-.14s22.61-6,24-6.44a11.4,11.4,0,0,1,3-.43C56.89,22.47,62,25,63,28.71,66.14,40,81.71,93.28,81.86,94a5.54,5.54,0,0,0,2.86,3.57,6.51,6.51,0,0,0,2.86.72A6.88,6.88,0,0,0,89.3,98l5.49-1.35A5.64,5.64,0,0,0,98.66,89.64ZM25.83,23.76l-1.28-4.85s5-1.43,23.47-6.44l1.28,5C46.15,18.32,25.83,23.76,25.83,23.76ZM59.4,18.25,60.75,12a18.19,18.19,0,0,1,6.73,3.86l-5.36,3.64A12,12,0,0,0,59.4,18.25ZM87.58,92.57s-14.43-49-18.58-64l5.06-1.21C77.64,39.8,92.93,91.21,92.93,91.21Z"/></svg>