<svg id="a51f5dfb-3846-4b26-9936-20b32374e9af" data-name="Layer 1" xmlns="http://www.w3.org/2000/svg" viewBox="0 0 180.21 197.92"><path d="M37.8,87.91c1,0,1.79-.12,2.54-.12H134.8c3.61,0,3.51,0,3.19,3.56-1.14,12.48-2.2,32.17-3.29,44.66-.38,4.39-.79,8.78-1.09,13.18-.14,1.95-1,2.75-3,3.11a225.13,225.13,0,0,1-52.91,3.24C66.8,155,55.92,153.3,45,152.12c-1.8-.19-2.63-1.1-2.78-3-1-12.88-2.05-33-3.1-45.84C38.72,98.26,38.27,93.26,37.8,87.91Zm21.49,51.87h0c-.68-8.32-1.35-23.83-2-32.14-.24-2.92-.43-5.85-.76-8.76-.21-1.85-1.23-3.43-3.14-3.47a5.37,5.37,0,0,0-3.48,1.64c-.6.62-.62,2-.54,3,.9,11.55,1.85,30.29,2.82,41.83.2,2.35,1.85,3.94,3.83,3.85s3.5-1.88,3.44-4.39C59.37,140.86,59.32,140.32,59.29,139.78Z"/></svg>