<svg id="ae04b48e-548a-4088-a6aa-39084b6d010f" data-name="Layer 1" xmlns="http://www.w3.org/2000/svg" viewBox="0 0 180.21 197.92"><path d="M152.18,54c4.92,0,6.43,2.51,6,7.44-1.52,17-3,33.91-4.46,50.86q-2,22.77-4.09,45.54-1.49,16.64-2.91,33.29c-.37,4.24-1.91,5.7-6.2,5.69l-105.35-.21c-4.2,0-5.74-1.32-6.13-5.54-.85-9-1.59-18-2.36-27.05q-2.15-25.44-4.27-50.88-1.47-17.46-2.93-34.93c-.5-6-1-12-1.48-18C17.68,56.56,19.6,54,23.16,54ZM30.76,63.71c-.46,0-.93,0-1.39,0-1.27,0-1.74.62-1.62,1.93.62,7,1.17,14,1.77,21q3,35.25,6,70.51c.14,1.68.53,2.82,2.33,3.14,6.91,1.21,13.79,2.76,20.75,3.6a266.15,266.15,0,0,0,44,1.24,187,187,0,0,0,35.55-4.73,2.47,2.47,0,0,0,2.17-2.53c.49-6.09,1.1-12.17,1.63-18.25q3.18-36.41,6.35-72.81c.25-3,.25-3-2.69-3"/></svg>