<svg id="a32426f0-50fa-4bdf-947f-691f0bf40c57" data-name="Layer 1" xmlns="http://www.w3.org/2000/svg" viewBox="0 0 180.21 197.92"><path d="M152.18,54c4.92,0,6.43,2.51,6,7.44-1.52,17-3,33.91-4.46,50.86q-2,22.77-4.09,45.54-1.49,16.64-2.91,33.29c-.37,4.24-1.91,5.7-6.2,5.69l-105.35-.21c-4.2,0-5.74-1.32-6.13-5.54-.85-9-1.59-18-2.36-27.05q-2.15-25.44-4.27-50.88-1.47-17.46-2.93-34.93c-.5-6-1-12-1.48-18C17.68,56.56,19.6,54,23.16,54ZM30.76,63.71c-.46,0-.93,0-1.39,0-1.27,0-1.74.62-1.62,1.93.62,7,1.17,14,1.77,21q3,35.25,6,70.51c.14,1.68.53,2.82,2.33,3.14,6.91,1.21,13.79,2.76,20.75,3.6a266.15,266.15,0,0,0,44,1.24,187,187,0,0,0,35.55-4.73,2.47,2.47,0,0,0,2.17-2.53c.49-6.09,1.1-12.17,1.63-18.25q3.18-36.41,6.35-72.81c.25-3,.25-3-2.69-3"/><path d="M37.8,87.91c1,0,1.79-.12,2.54-.12H134.8c3.61,0,3.51,0,3.19,3.56-1.14,12.48-2.2,32.17-3.29,44.66-.38,4.39-.79,8.78-1.09,13.18-.14,1.95-1,2.75-3,3.11a225.13,225.13,0,0,1-52.91,3.24C66.8,155,55.92,153.3,45,152.12c-1.8-.19-2.63-1.1-2.78-3-1-12.88-2.05-25.76-3.1-38.64C38.72,105.46,38.27,93.26,37.8,87.91Zm21.49,51.87h0q-1-12.48-2-24.94c-.24-2.92-.43-13-.76-16-.21-1.85-1.23-3.43-3.14-3.47a5.37,5.37,0,0,0-3.48,1.64c-.6.62-.62,2-.54,3,.9,11.55,1.85,30.29,2.82,41.83.2,2.35,1.85,3.94,3.83,3.85s3.5-1.88,3.44-4.39C59.37,140.86,59.32,140.32,59.29,139.78Z"/></svg>