<svg id="a2d7b76c-4e80-48ec-b9e6-500341bd57f6" data-name="Layer 1" xmlns="http://www.w3.org/2000/svg" viewBox="0 0 180.21 197.92"><path d="M37.8,95.11c1,0,1.79-.12,2.54-.12H134.8c3.61,0,3.51,0,3.19,3.56-1.14,12.48-2.2,25-3.29,37.46-.38,4.39-.79,8.78-1.09,13.18-.14,1.95-1,2.75-3,3.11a225.13,225.13,0,0,1-52.91,3.24C66.8,155,55.92,153.3,45,152.12c-1.8-.19-2.63-1.1-2.78-3-1-12.88-2.05-25.76-3.1-38.64C38.72,105.46,38.27,100.46,37.8,95.11Zm21.49,44.67h0q-1-12.48-2-24.94c-.24-2.92-.43-5.85-.76-8.76-.21-1.85-1.23-3.43-3.14-3.47a5.37,5.37,0,0,0-3.48,1.64c-.6.62-.62,2-.54,3q1.35,17.32,2.82,34.63c.2,2.35,1.85,3.94,3.83,3.85s3.5-1.88,3.44-4.39C59.37,140.86,59.32,140.32,59.29,139.78Z"/></svg>