<svg id="feed08da-dd30-4648-aebb-bbe9ccd11cc6" data-name="Layer 1" xmlns="http://www.w3.org/2000/svg" viewBox="0 0 180.21 197.92"><path d="M90.09,92.12c11.93,0,23.87.06,35.8-.05,2,0,2.66.81,3.06,2.46a91.56,91.56,0,0,1,1.72,23.89c-1,10.65-6.53,17.88-16.44,21.65-10.38,4-21.19,4.38-32.13,3.49a53.82,53.82,0,0,1-17.8-4.14c-8.84-3.94-13.72-10.84-14.81-20.37-.79-6.89.11-18.35,1.81-25,.38-1.55,1.11-1.91,2.6-1.91C66,92.15,78,92.12,90.09,92.12ZM63.28,109.46A2.67,2.67,0,0,0,61,105.92c-1.83-.18-3,.75-3.39,2.79A28.73,28.73,0,0,0,58,121.26a14.91,14.91,0,0,0,7.93,10.08c1.53.79,3,.9,4.27-.61s.94-3.44-1.25-4.74a9.7,9.7,0,0,1-5.18-7.71C63.47,115.35,63.43,112.4,63.28,109.46Z"/></svg>