<svg id="aadef45f-b5f3-4b74-9ff4-67bbd31de924" data-name="Layer 1" xmlns="http://www.w3.org/2000/svg" viewBox="0 0 180.21 197.92"><path d="M90.16,54.09c9.17,0,18.34.06,27.5,0a6.6,6.6,0,0,1,5.61,2.68,103.73,103.73,0,0,1,15.89,28.09c3.71,9.61,6.12,19.53,6,29.86-.16,12.69-4.14,23.84-14.35,32.09-6.57,5.3-14.24,8.16-22.44,9.64-4.14.75-8.36,1.08-12.55,1.53-1.09.11-1.49.59-1.47,1.63,0,4.42,0,8.85.19,13.26a2.9,2.9,0,0,0,1.59,2.08c9.19,3.23,18.41,6.33,27.62,9.46a16.78,16.78,0,0,1,1.66.65,4.06,4.06,0,0,1,2.5,4.12A3.76,3.76,0,0,1,125,193c-5.83,1.33-11.66,2.79-17.56,3.72a117.49,117.49,0,0,1-26.44.89,124.64,124.64,0,0,1-24.71-4.16c-3.86-1.06-5.38-4.57-3.09-7.13a7.71,7.71,0,0,1,3.18-1.84c9.19-3.21,18.4-6.34,27.61-9.49a2.2,2.2,0,0,0,1.8-2.4c-.09-4.22-.06-8.45,0-12.67,0-1.47-.47-1.88-1.91-2-9.8-.58-19.39-2.22-28.16-6.94-12.63-6.8-19.24-17.61-20.47-31.76-1.17-13.48,2.09-26.17,7.32-38.44a104.11,104.11,0,0,1,13.63-23.3,7.92,7.92,0,0,1,7-3.48c9,.19,17.94.07,26.91.07Zm0,7.93c-8.18,0-16.36.08-24.53-.05a4.84,4.84,0,0,0-4.43,2.25A97.18,97.18,0,0,0,48.82,86.66c-4,10.17-6.58,20.64-5.65,31.66,1.1,13.06,7.67,22.33,19.9,27.33,9.71,4,19.93,4.78,30.28,4.4,8.8-.33,17.49-1.38,25.58-5.22,9.35-4.45,15.31-11.6,17.31-21.88a54.59,54.59,0,0,0-.79-22.76,95.59,95.59,0,0,0-16.78-36.31,4.25,4.25,0,0,0-3.82-1.9C106.61,62.06,98.36,62,90.12,62ZM73.93,187.55l.1.61a109.3,109.3,0,0,0,32.15-.28,7.11,7.11,0,0,0-2.11-1.13c-2.85-1-5.77-1.82-8.55-3-3.47-1.44-6.71-1.91-10.34-.23S77.69,186.24,73.93,187.55Z"/></svg>